v -2.758242 0.650621 -1.037136
v -2.758242 0.650621 -4.237136
v -2.758242 0.590621 -4.237136
v -2.758242 0.590621 -1.037136
v -2.758242 0.650621 -4.237136
v -0.758242 0.650621 -4.237136
v -0.758242 0.590621 -4.237136
v -2.758242 0.590621 -4.237136
v -0.758242 0.650621 -4.237136
v -0.758242 0.650621 -1.037136
v -0.758242 0.590621 -1.037136
v -0.758242 0.590621 -4.237136
v -0.758242 0.650621 -1.037136
v -2.758242 0.650621 -1.037136
v -2.758242 0.590621 -1.037136
v -0.758242 0.590621 -1.037136
v -2.758242 0.590621 -1.037136
v -2.758242 0.590621 -4.237136
v -0.758242 0.590621 -4.237136
v -0.758242 0.590621 -1.037136
v -0.758242 0.650621 -1.037136
v -0.758242 0.650621 -4.237136
v -2.758242 0.650621 -4.237136
v -2.758242 0.650621 -1.037136
vn -1.000000 0.000000 0.000000
vn -1.000000 0.000000 0.000000
vn -1.000000 0.000000 0.000000
vn -1.000000 0.000000 0.000000
vn 0.000000 0.000000 -1.000000
vn 0.000000 0.000000 -1.000000
vn 0.000000 0.000000 -1.000000
vn 0.000000 0.000000 -1.000000
vn 1.000000 0.000000 0.000000
vn 1.000000 0.000000 0.000000
vn 1.000000 0.000000 0.000000
vn 1.000000 0.000000 0.000000
vn 0.000000 0.000000 1.000000
vn 0.000000 0.000000 1.000000
vn 0.000000 0.000000 1.000000
vn 0.000000 0.000000 1.000000
vn 0.000000 -1.000000 0.000000
vn 0.000000 -1.000000 0.000000
vn 0.000000 -1.000000 0.000000
vn 0.000000 -1.000000 0.000000
vn 0.000000 1.000000 0.000000
vn 0.000000 1.000000 0.000000
vn 0.000000 1.000000 0.000000
vn 0.000000 1.000000 0.000000
vt 0.080552 0.487421
vt 0.928687 0.487421
vt 0.928687 0.503425
vt 0.080553 0.503425
vt 0.928379 0.022590
vt 0.928379 0.486169
vt 0.948022 0.486169
vt 0.948022 0.022590
vt 0.928353 0.021250
vt 0.079956 0.021250
vt 0.079956 0.006457
vt 0.928353 0.006457
vt 0.080036 0.020915
vt 0.080036 0.486966
vt 0.057994 0.486966
vt 0.057994 0.020915
vt 0.083681 0.968245
vt 0.930181 0.968245
vt 0.930181 0.503976
vt 0.083681 0.503976
vt 0.079950 0.021216
vt 0.928925 0.021216
vt 0.928925 0.487435
vt 0.079949 0.487435
f 1/1/1 2/2/2 3/3/3
f 1/1/1 3/3/3 4/4/4
f 5/5/5 6/6/6 7/7/7
f 5/5/5 7/7/7 8/8/8
f 9/9/9 10/10/10 11/11/11
f 9/9/9 11/11/11 12/12/12
f 13/13/13 14/14/14 15/15/15
f 13/13/13 15/15/15 16/16/16
f 17/17/17 18/18/18 19/19/19
f 17/17/17 19/19/19 20/20/20
f 21/21/21 22/22/22 23/23/23
f 21/21/21 23/23/23 24/24/24
