v -2.818228 2.769025 -4.689565
v -2.362186 2.769025 -6.182385
v -2.362186 -0.012130 -6.182385
v -2.818228 -0.012130 -4.689565
v -2.362186 2.769025 -6.182385
v -2.312025 2.769025 -6.167061
v -2.312025 -0.012130 -6.167061
v -2.362186 -0.012130 -6.182385
v -2.312025 2.769025 -6.167061
v -2.768066 2.769025 -4.674241
v -2.768066 -0.012130 -4.674241
v -2.312025 -0.012130 -6.167061
v -2.768066 2.769025 -4.674241
v -2.818228 2.769025 -4.689565
v -2.818228 -0.012130 -4.689565
v -2.768066 -0.012130 -4.674241
v -2.818228 -0.012130 -4.689565
v -2.362186 -0.012130 -6.182385
v -2.312025 -0.012130 -6.167061
v -2.768066 -0.012130 -4.674241
v -2.768066 2.769025 -4.674241
v -2.312025 2.769025 -6.167061
v -2.362186 2.769025 -6.182385
v -2.818228 2.769025 -4.689565
vn -0.956400 0.000000 -0.292200
vn -0.956400 0.000000 -0.292200
vn -0.956400 0.000000 -0.292200
vn -0.956400 0.000000 -0.292200
vn 0.292200 0.000000 -0.956400
vn 0.292200 0.000000 -0.956400
vn 0.292200 0.000000 -0.956400
vn 0.292200 0.000000 -0.956400
vn 0.956400 0.000000 0.292200
vn 0.956400 0.000000 0.292200
vn 0.956400 0.000000 0.292200
vn 0.956400 0.000000 0.292200
vn -0.292200 0.000000 0.956400
vn -0.292200 0.000000 0.956400
vn -0.292200 0.000000 0.956400
vn -0.292200 0.000000 0.956400
vn 0.000000 -1.000000 0.000000
vn 0.000000 -1.000000 0.000000
vn 0.000000 -1.000000 0.000000
vn 0.000000 -1.000000 0.000000
vn 0.000000 1.000000 -0.000000
vn 0.000000 1.000000 -0.000000
vn 0.000000 1.000000 -0.000000
vn 0.000000 1.000000 -0.000000
vt 0.396810 0.987118
vt 0.972516 0.987118
vt 0.972516 0.022625
vt 0.396810 0.022625
vt 0.226119 0.987118
vt 0.237911 0.987118
vt 0.237911 0.022625
vt 0.226119 0.022625
vt 0.522887 0.987118
vt -0.052818 0.987118
vt -0.052818 0.022625
vt 0.522887 0.022625
vt 0.237911 0.987118
vt 0.226119 0.987118
vt 0.226119 0.022625
vt 0.237911 0.022625
vt 0.226119 0.792966
vt 0.226119 1.739212
vt 0.237911 1.739212
vt 0.237911 0.792966
vt 0.237911 0.792966
vt 0.237911 1.739212
vt 0.226119 1.739212
vt 0.226119 0.792966
f 1/1/1 2/2/2 3/3/3
f 1/1/1 3/3/3 4/4/4
f 5/5/5 6/6/6 7/7/7
f 5/5/5 7/7/7 8/8/8
f 9/9/9 10/10/10 11/11/11
f 9/9/9 11/11/11 12/12/12
f 13/13/13 14/14/14 15/15/15
f 13/13/13 15/15/15 16/16/16
f 17/17/17 18/18/18 19/19/19
f 17/17/17 19/19/19 20/20/20
f 21/21/21 22/22/22 23/23/23
f 21/21/21 23/23/23 24/24/24
